<!-- Generator: Adobe Illustrator 25.0.0, SVG Export Plug-In  -->
<svg version="1.1" xmlns="http://www.w3.org/2000/svg" xmlns:xlink="http://www.w3.org/1999/xlink" x="0px" y="0px" width="91px"
     height="24px" viewBox="0 0 91 24" style="overflow:visible;enable-background:new 0 0 91 24;" xml:space="preserve">
<style type="text/css">
    .st0{fill:none;}
    .st1{fill:#FFFFFF;}
    .st2{fill:#E95217;}
</style>
<defs>
</defs>
<rect class="st0" width="91" height="24"/>
<g>
    <g>
	<g>
	    <g>
		<path class="st1" d="M33.9,11.1c-0.9,0-1.8,0.1-2.5,0.2V12v0.7c0.7,0.1,1.6,0.2,2.5,0.2c1,0,1.9-0.1,2.6-0.2V12v-0.7
		    C35.7,11.2,34.8,11.1,33.9,11.1z"/>
		<path class="st1" d="M2.9,16H1V8h1.9V16z"/>
		<path class="st1" d="M15,16h-2.2c-1,0-1.7-0.3-2.3-1.1l-3.7-4.6C6.4,9.9,6.3,9.8,5.9,9.8H5.7V16H3.9V8h2c1,0,1.7,0.3,2.3,1.1
		    l3.9,4.7c0.3,0.3,0.4,0.4,0.8,0.4h0.2V8H15V16z"/>
		<path class="st1" d="M27,16h-2.2c-1,0-1.7-0.3-2.3-1.1l-3.7-4.6c-0.3-0.3-0.4-0.4-0.8-0.4h-0.2V16h-1.8V8h2c1,0,1.7,0.3,2.3,1.1
		    l3.9,4.7c0.3,0.3,0.4,0.4,0.8,0.4h0.2V8H27V16z"/>
		<path class="st1" d="M48.1,15.3c-0.3,0.4-0.7,0.7-1.2,0.7h-1.8c-0.7,0-0.9-0.2-1.1-0.7L39.9,8H42l3.2,5.8
		    c0.1,0.3,0.3,0.4,0.5,0.4h0.5c0.2,0,0.4-0.1,0.5-0.4L50,8h2.2L48.1,15.3z"/>
		<path class="st1" d="M62,16h-2.4l-0.8-1.5h-6L52,16h-2.4l4.1-7.3C53.9,8.2,54.1,8,54.8,8h2c0.5,0,0.9,0.2,1.2,0.7L62,16z
		     M55.4,9.8c-0.2,0-0.4,0.1-0.5,0.4l-1.3,2.4h4.5l-1.4-2.5c-0.1-0.3-0.3-0.4-0.5-0.4H55.4z"/>
		<path class="st1" d="M74.1,10.7c0,1.3-0.7,2-2,2h-0.9l3.2,3.3h-2.3L69,12.8h-4.5V16h-1.9V8h9.3c1.5,0,2.2,0.6,2.2,1.9V10.7z
		     M64.5,9.8v1.3H72c0.3,0,0.4-0.1,0.4-0.3v-0.7c0-0.2-0.1-0.3-0.4-0.3H64.5z"/>
		<path class="st1" d="M85.8,9.8h-8.5c-0.3,0-0.4,0.1-0.4,0.4V11h8.9v1.8h-8.9v0.8c0,0.3,0.1,0.4,0.4,0.4h8.5v2h-8.6
		    c-1.6,0-2.3-0.7-2.3-2.1v-4c0-1.3,0.8-1.9,2.3-1.9h8.5V9.8z"/>
		<path class="st1" d="M88.5,11.1c-0.2,0-0.4,0-0.6-0.1c-0.2-0.1-0.3-0.2-0.5-0.3s-0.2-0.3-0.3-0.5C87,10,87,9.8,87,9.5
		    s0-0.4,0.1-0.6c0.1-0.2,0.2-0.4,0.3-0.5c0.1-0.1,0.3-0.2,0.5-0.3C88.1,8.1,88.3,8,88.5,8c0.2,0,0.4,0,0.6,0.1
		    c0.2,0.1,0.3,0.2,0.5,0.3c0.1,0.1,0.2,0.3,0.3,0.5C90,9.1,90,9.3,90,9.5s0,0.4-0.1,0.6c-0.1,0.2-0.2,0.4-0.3,0.5
		    c-0.1,0.1-0.3,0.2-0.5,0.3C88.9,11,88.7,11.1,88.5,11.1z M88.5,10.9c0.3,0,0.5-0.1,0.7-0.2c0.2-0.1,0.3-0.3,0.5-0.5
		    c0.1-0.2,0.2-0.4,0.2-0.7c0-0.3-0.1-0.5-0.2-0.7c-0.1-0.2-0.3-0.4-0.5-0.5c-0.2-0.1-0.4-0.2-0.7-0.2c-0.3,0-0.5,0.1-0.7,0.2
		    c-0.2,0.1-0.4,0.3-0.5,0.5c-0.1,0.2-0.2,0.4-0.2,0.7c0,0.3,0.1,0.5,0.2,0.7c0.1,0.2,0.3,0.4,0.5,0.5
		    C88,10.8,88.2,10.9,88.5,10.9z M87.9,10.4V8.7h0.8c0.2,0,0.3,0,0.4,0.1c0.1,0.1,0.1,0.2,0.1,0.4c0,0.1,0,0.2-0.1,0.3
		    c-0.1,0.1-0.1,0.2-0.2,0.2l0.4,0.7H89l-0.3-0.7h-0.5v0.7H87.9z M88.2,9.5h0.5c0.1,0,0.2,0,0.2-0.1c0.1-0.1,0.1-0.1,0.1-0.2
		    c0-0.1,0-0.2-0.1-0.2c0-0.1-0.1-0.1-0.2-0.1h-0.5V9.5z"/>
	    </g>
	    <path class="st2" d="M38.8,8.2C38.5,8.1,38,8,37.5,8h-7.2c-0.5,0-1,0.1-1.3,0.2c-0.7,0.3-1,0.9-1,1.7v4.1c0,0.8,0.3,1.4,1,1.7
		c0.4,0.2,0.8,0.2,1.3,0.2h7.2c0.5,0,1-0.1,1.3-0.2c0.7-0.3,1-0.9,1-1.7V9.9C39.8,9.1,39.5,8.5,38.8,8.2z M37.9,13.8
		c0,0.3-0.1,0.4-0.4,0.4h-7.1c-0.3,0-0.4-0.1-0.4-0.4v-3.6c0-0.3,0.1-0.4,0.4-0.4h7.1c0.3,0,0.4,0.1,0.4,0.4V13.8z"/>
	</g>
    </g>
</g>
</svg>