<!-- Generator: Adobe Illustrator 25.0.0, SVG Export Plug-In  -->
<svg version="1.1" xmlns="http://www.w3.org/2000/svg" xmlns:xlink="http://www.w3.org/1999/xlink" x="0px" y="0px" width="114px"
     height="30px" viewBox="0 0 114 30" style="overflow:visible;enable-background:new 0 0 114 30;" xml:space="preserve">
<style type="text/css">
    .st0{fill:none;}
    .st1{fill:#FFFFFF;}
    .st2{fill:#E95217;}
</style>
<defs>
</defs>
<rect class="st0" width="114" height="30"/>
<g>
    <g>
	<g>
	    <g>
		<path class="st1" d="M42.3,13.9c-1.2,0-2.3,0.1-3.2,0.3V15v0.9c0.9,0.2,2,0.3,3.2,0.3c1.2,0,2.4-0.1,3.3-0.3V15v-0.9
		    C44.7,14,43.6,13.9,42.3,13.9z"/>
		<path class="st1" d="M3.5,19.9H1v-9.7h2.5V19.9z"/>
		<path class="st1" d="M18.6,19.9h-2.8c-1.3,0-2.1-0.4-2.9-1.4l-4.7-5.7c-0.3-0.4-0.5-0.5-1-0.5H6.9v7.5H4.7v-9.7h2.5
		    c1.3,0,2.1,0.4,2.9,1.3l5,5.7c0.4,0.4,0.5,0.5,1,0.5h0.3v-7.5h2.2V19.9z"/>
		<path class="st1" d="M33.7,19.9h-2.8c-1.3,0-2.1-0.4-2.9-1.4l-4.7-5.7c-0.3-0.4-0.5-0.5-1-0.5h-0.3v7.5h-2.2v-9.7h2.5
		    c1.3,0,2.1,0.4,2.9,1.3l5,5.7c0.4,0.4,0.5,0.5,1,0.5h0.3v-7.5h2.2V19.9z"/>
		<path class="st1" d="M60.3,19c-0.3,0.5-0.8,0.8-1.5,0.8h-2.3c-0.9,0-1.1-0.3-1.4-0.8l-5.1-8.9h2.7l4,7c0.2,0.3,0.4,0.5,0.7,0.5
		    H58c0.2,0,0.5-0.1,0.6-0.5l4.1-7h2.7L60.3,19z"/>
		<path class="st1" d="M77.8,19.9h-3L73.8,18h-7.6l-1,1.8h-3l5.1-8.9c0.3-0.5,0.6-0.8,1.4-0.8h2.5c0.7,0,1.2,0.3,1.5,0.8
		    L77.8,19.9z M69.5,12.4c-0.3,0-0.5,0.2-0.7,0.5l-1.7,3h5.7l-1.7-3c-0.2-0.3-0.4-0.5-0.6-0.5H69.5z"/>
		<path class="st1" d="M93,13.4c0,1.6-0.9,2.5-2.5,2.5h-1.1l4.1,4.1h-2.9L86.6,16h-5.7v3.8h-2.5v-9.7h11.7c1.9,0,2.8,0.8,2.8,2.4
		    V13.4z M80.9,12.4V14h9.3c0.3,0,0.5-0.1,0.5-0.4v-0.8c0-0.3-0.2-0.4-0.5-0.4H80.9z"/>
		<path class="st1" d="M107.7,12.4H97c-0.4,0-0.6,0.2-0.6,0.5v1h11.2V16H96.5v1c0,0.3,0.2,0.5,0.6,0.5h10.7v2.4H97
		    c-2,0-2.9-0.8-2.9-2.6v-4.8c0-1.6,1-2.3,2.9-2.3h10.8V12.4z"/>
		<path class="st1" d="M111.1,13.9c-0.3,0-0.5,0-0.8-0.1c-0.2-0.1-0.4-0.2-0.6-0.4s-0.3-0.4-0.4-0.6c-0.1-0.2-0.1-0.5-0.1-0.7
		    s0-0.5,0.1-0.7c0.1-0.2,0.2-0.4,0.4-0.6c0.2-0.2,0.4-0.3,0.6-0.4c0.2-0.1,0.5-0.1,0.8-0.1c0.3,0,0.5,0,0.8,0.1
		    c0.2,0.1,0.4,0.2,0.6,0.4c0.2,0.2,0.3,0.4,0.4,0.6c0.1,0.2,0.1,0.5,0.1,0.7s0,0.5-0.1,0.7c-0.1,0.2-0.2,0.4-0.4,0.6
		    c-0.2,0.2-0.4,0.3-0.6,0.4C111.6,13.8,111.4,13.9,111.1,13.9z M111.1,13.6c0.3,0,0.6-0.1,0.8-0.2c0.2-0.1,0.4-0.3,0.6-0.6
		    c0.1-0.2,0.2-0.5,0.2-0.8s-0.1-0.6-0.2-0.8c-0.1-0.2-0.3-0.4-0.6-0.6c-0.2-0.1-0.5-0.2-0.8-0.2s-0.6,0.1-0.8,0.2
		    c-0.2,0.1-0.4,0.3-0.6,0.6c-0.1,0.2-0.2,0.5-0.2,0.8s0.1,0.6,0.2,0.8c0.1,0.2,0.3,0.4,0.6,0.6C110.5,13.6,110.8,13.6,111.1,13.6
		    z M110.3,13.1v-2.2h1c0.2,0,0.4,0.1,0.5,0.2c0.1,0.1,0.2,0.3,0.2,0.5c0,0.1,0,0.3-0.1,0.4c-0.1,0.1-0.2,0.2-0.3,0.2l0.5,0.9
		    h-0.3l-0.4-0.8h-0.6v0.8H110.3z M110.7,12h0.6c0.1,0,0.2,0,0.3-0.1c0.1-0.1,0.1-0.2,0.1-0.3c0-0.1,0-0.2-0.1-0.3
		    c-0.1-0.1-0.1-0.1-0.3-0.1h-0.6V12z"/>
	    </g>
	    <path class="st2" d="M48.6,10.4c-0.4-0.2-1-0.3-1.7-0.3h-9.1c-0.7,0-1.2,0.1-1.7,0.3c-0.8,0.4-1.3,1-1.3,2.1v5.1
		c0,1,0.4,1.7,1.3,2.1c0.4,0.2,1,0.3,1.7,0.3h9.1c0.7,0,1.2-0.1,1.7-0.3c0.8-0.4,1.3-1,1.3-2.1v-5.1
		C49.9,11.5,49.5,10.8,48.6,10.4z M47.4,17.2c0,0.3-0.2,0.5-0.5,0.5h-8.9c-0.4,0-0.6-0.2-0.6-0.5v-4.3c0-0.3,0.2-0.5,0.6-0.5h8.9
		c0.4,0,0.5,0.2,0.5,0.5V17.2z"/>
	</g>
    </g>
</g>
</svg>