<!-- Generator: Adobe Illustrator 25.0.0, SVG Export Plug-In  -->
<svg version="1.1" xmlns="http://www.w3.org/2000/svg" xmlns:xlink="http://www.w3.org/1999/xlink" x="0px" y="0px" width="24px"
     height="24px" viewBox="0 0 24 24" style="overflow:visible;enable-background:new 0 0 24 24;" xml:space="preserve">
<style type="text/css">
    .st0{fill:none;}
    .st1{fill:#FFFFFF;}
    .st2{fill:#E95217;}
</style>
<defs>
</defs>
<rect class="st0" width="24" height="24"/>
<g>
    <g>
	<g>
	    <path class="st1" d="M11.9,10.3c-1.7,0-3.3,0.2-4.7,0.4V12v1.3c1.4,0.2,3,0.4,4.7,0.4c1.8,0,3.5-0.2,4.9-0.4V12v-1.3
		C15.4,10.5,13.8,10.3,11.9,10.3z"/>
	</g>
	<path class="st2" d="M21.2,5.2c-0.7-0.3-1.5-0.4-2.5-0.4H5.3c-1,0-1.8,0.1-2.5,0.4C1.6,5.7,1,6.7,1,8.2v7.5c0,1.5,0.6,2.5,1.8,3.1
	    c0.7,0.3,1.5,0.4,2.5,0.4h13.3c1,0,1.8-0.1,2.5-0.4c1.2-0.5,1.8-1.5,1.8-3.1V8.2C23,6.7,22.4,5.7,21.2,5.2z M19.4,15.2
	    c0,0.5-0.3,0.7-0.8,0.7H5.4c-0.5,0-0.8-0.2-0.8-0.7V8.8c0-0.5,0.3-0.7,0.8-0.7h13.2c0.5,0,0.8,0.2,0.8,0.7V15.2z"/>
    </g>
</g>
</svg>
